<svg xmlns="http://www.w3.org/2000/svg" viewBox="19.340299606323242 15.340299606323242 382.3197021484375 269.3197021484375"><g xmlns="http://www.w3.org/2000/svg" filter="url(#filter0_d_13122_13651)"><mask id="path-1-inside-1_13122_13651" fill="#D1D5DB"><path fill-rule="evenodd" clip-rule="evenodd" d="M210 76C237.663 76 260.953 57.2797 267.893 31.8166C270.217 23.2911 277.163 16 286 16H385C393.837 16 401 23.1634 401 32V268C401 276.837 393.837 284 385 284H36C27.1634 284 20 276.837 20 268V32C20 23.1634 27.1634 16 36 16H134C142.837 16 149.783 23.2911 152.107 31.8166C159.047 57.2797 182.337 76 210 76Z"/></mask><path fill-rule="evenodd" clip-rule="evenodd" d="M210 76C237.663 76 260.953 57.2797 267.893 31.8166C270.217 23.2911 277.163 16 286 16H385C393.837 16 401 23.1634 401 32V268C401 276.837 393.837 284 385 284H36C27.1634 284 20 276.837 20 268V32C20 23.1634 27.1634 16 36 16H134C142.837 16 149.783 23.2911 152.107 31.8166C159.047 57.2797 182.337 76 210 76Z" fill="white"/><path d="M267.257 31.6431C260.393 56.8265 237.358 75.3403 210 75.3403V76.6597C237.968 76.6597 261.513 57.7328 268.53 31.9901L267.257 31.6431ZM286 16.6597H385V15.3403H286V16.6597ZM400.34 32V268H401.66V32H400.34ZM385 283.34H36V284.66H385V283.34ZM20.6597 268V32H19.3403V268H20.6597ZM36 16.6597H134V15.3403H36V16.6597ZM210 75.3403C182.642 75.3403 159.607 56.8265 152.743 31.6431L151.47 31.9901C158.487 57.7328 182.032 76.6597 210 76.6597V75.3403ZM134 16.6597C142.443 16.6597 149.196 23.6468 151.47 31.9901L152.743 31.6431C150.37 22.9354 143.23 15.3403 134 15.3403V16.6597ZM36 283.34C27.5278 283.34 20.6597 276.472 20.6597 268H19.3403C19.3403 277.201 26.7991 284.66 36 284.66V283.34ZM400.34 268C400.34 276.472 393.472 283.34 385 283.34V284.66C394.201 284.66 401.66 277.201 401.66 268H400.34ZM385 16.6597C393.472 16.6597 400.34 23.5278 400.34 32H401.66C401.66 22.7991 394.201 15.3403 385 15.3403V16.6597ZM20.6597 32C20.6597 23.5278 27.5278 16.6597 36 16.6597V15.3403C26.7991 15.3403 19.3403 22.7991 19.3403 32H20.6597ZM268.53 31.9901C270.804 23.6468 277.557 16.6597 286 16.6597V15.3403C276.77 15.3403 269.63 22.9354 267.257 31.6431L268.53 31.9901Z" fill="#E5E7EB" mask="url(#path-1-inside-1_13122_13651)"/></g></svg>