<svg xmlns="http://www.w3.org/2000/svg" width="24" height="25" fill="none" viewBox="0 0 24 25"><path fill="#66BB6A" d="M12 1.952 3 5.225V12.5c0 8.22 8.733 10.457 8.821 10.479l.179.043.179-.043C12.267 22.957 21 20.72 21 12.5V5.225l-9-3.273Z"/><path fill="#4DAF4E" d="M12 1.952v21.07l.179-.043C12.267 22.957 21 20.72 21 12.5V5.225l-9-3.273Z"/><path fill="#EDEFF0" d="m10.5 16.56-3.53-3.53 1.06-1.06 2.47 2.47 5.47-5.47 1.06 1.06-6.53 6.53Z"/><path fill="#CFD8DC" d="m12 15.06 5.03-5.03-1.06-1.06L12 12.94v2.12Z"/></svg>