<svg xmlns="http://www.w3.org/2000/svg" width="25" height="25" viewBox="0 0 25 25" fill="none">
  <g clip-path="url(#clip0_13271_2493)">
    <path d="M12.5 24.5C19.1274 24.5 24.5 19.1274 24.5 12.5C24.5 5.87258 19.1274 0.5 12.5 0.5C5.87258 0.5 0.5 5.87258 0.5 12.5C0.5 19.1274 5.87258 24.5 12.5 24.5Z" fill="#12C64B"/>
    <path d="M16.8348 16.9361C16.7397 17.0985 16.5841 17.2166 16.4021 17.2644C16.2201 17.3122 16.0265 17.2859 15.8639 17.1911C13.9971 16.1002 11.8412 15.9256 10.3602 15.9638C9.39829 15.9884 8.44162 16.1146 7.50616 16.3402C7.332 16.371 7.1526 16.3358 7.00305 16.2413C6.85349 16.1469 6.74454 16.0001 6.69748 15.8296C6.65043 15.6591 6.66866 15.4772 6.74861 15.3194C6.82856 15.1617 6.96448 15.0394 7.12979 14.9765C8.16038 14.7204 9.21555 14.5759 10.2771 14.5456C11.293 14.5081 12.3099 14.5817 13.3098 14.7652C14.4609 14.9735 15.5678 15.3776 16.5825 15.9597C16.6636 16.0069 16.7345 16.0697 16.7911 16.1444C16.8478 16.2192 16.889 16.3044 16.9125 16.3952C16.9359 16.4861 16.9412 16.5806 16.9278 16.6734C16.9145 16.7663 16.8829 16.8556 16.8348 16.9361Z" fill="white"/>
    <path d="M18.155 14.1936C18.081 14.3207 17.9749 14.4261 17.8473 14.4993C17.7198 14.5725 17.5752 14.611 17.4282 14.6108C17.2789 14.6111 17.1324 14.571 17.0041 14.4949C14.7936 13.2036 12.2409 12.9949 10.4859 13.0495C9.34649 13.0783 8.21334 13.2278 7.10544 13.4954C6.89351 13.5453 6.67049 13.5111 6.48325 13.3999C6.29602 13.2888 6.15915 13.1094 6.10141 12.8995C6.04368 12.6896 6.06957 12.4654 6.17365 12.2742C6.27773 12.083 6.45189 11.9395 6.65953 11.874C7.88043 11.5719 9.13043 11.4027 10.3877 11.3695C11.5914 11.3231 12.7965 11.4105 13.9809 11.6299C15.3432 11.8769 16.6531 12.3557 17.8536 13.0454C18.0454 13.158 18.1848 13.3421 18.2413 13.5573C18.2978 13.7724 18.2668 14.0012 18.155 14.1936Z" fill="white"/>
    <path d="M19.8634 11.1897C19.7952 11.3068 19.7045 11.4093 19.5966 11.4913C19.4887 11.5734 19.3656 11.6332 19.2345 11.6676C19.1033 11.7019 18.9667 11.71 18.8324 11.6914C18.6982 11.6728 18.5689 11.6279 18.452 11.5592C13.1966 8.4883 6.37976 10.3142 6.31566 10.3319C6.18319 10.3739 6.0436 10.3887 5.90528 10.3754C5.76695 10.3621 5.63273 10.321 5.51066 10.2546C5.38859 10.1882 5.28119 10.0979 5.19488 9.98895C5.10858 9.88003 5.04516 9.75481 5.00842 9.62079C4.97167 9.48677 4.96237 9.34672 4.98106 9.20902C4.99975 9.07132 5.04605 8.93881 5.11718 8.81943C5.18832 8.70006 5.28283 8.59627 5.39504 8.5143C5.50725 8.43233 5.63486 8.37386 5.77021 8.34239C7.26417 7.97418 8.79345 7.76799 10.3316 7.7274C11.8075 7.67239 13.2849 7.77939 14.7375 8.04649C16.408 8.34685 18.0148 8.93072 19.4884 9.77285C19.6064 9.84087 19.7099 9.93158 19.7927 10.0398C19.8755 10.1479 19.9361 10.2714 19.971 10.4032C20.0058 10.5349 20.0143 10.6722 19.9958 10.8072C19.9773 10.9422 19.9323 11.0722 19.8634 11.1897Z" fill="white"/>
  </g>
  <defs>
    <clipPath id="clip0_13271_2493">
      <rect width="24" height="24" fill="white" transform="translate(0.5 0.5)"/>
    </clipPath>
  </defs>
</svg>