<svg xmlns="http://www.w3.org/2000/svg" width="40" height="41" fill="none" viewBox="0 0 40 41"><g clip-path="url(#a)"><path fill="#00DD80" d="M35.31 27.04c-1.075 2.914-2.7 5.448-4.833 7.53-2.427 2.37-5.605 4.253-9.446 5.597a2.938 2.938 0 0 1-.918.162h-.034a2.935 2.935 0 0 1-.95-.162c-3.846-1.34-7.029-3.223-9.458-5.593-2.133-2.082-3.759-4.614-4.832-7.528-1.953-5.298-1.842-11.134-1.752-15.824l.001-.072c.018-.387.03-.794.036-1.243a4.24 4.24 0 0 1 3.992-4.154c4.6-.256 8.157-1.756 11.197-4.72l.027-.024a2.561 2.561 0 0 1 3.478 0l.026.025c3.04 2.963 6.598 4.463 11.197 4.72a4.24 4.24 0 0 1 3.992 4.153c.007.452.018.858.036 1.243l.001.03c.09 4.7.2 10.547-1.76 15.86Z"/><path fill="#00AA63" d="M35.31 27.04c-1.074 2.914-2.7 5.448-4.833 7.53-2.427 2.37-5.605 4.253-9.446 5.597a2.936 2.936 0 0 1-.918.162v-40c.61.008 1.218.235 1.705.68l.026.025c3.04 2.963 6.598 4.463 11.197 4.72a4.24 4.24 0 0 1 3.992 4.153c.007.452.018.858.036 1.243l.001.03c.09 4.7.2 10.547-1.76 15.86Z"/><path fill="#fff" d="M30.047 20.329c0 5.485-4.453 9.95-9.933 9.969h-.035c-5.497 0-9.97-4.472-9.97-9.97 0-5.496 4.473-9.968 9.97-9.968h.035c5.48.02 9.933 4.484 9.933 9.969Z"/><path fill="#E1EBF0" d="M30.047 20.329c0 5.485-4.453 9.95-9.934 9.969V10.36c5.48.02 9.934 4.484 9.934 9.969Z"/><path fill="#B4D2D7" d="m24.603 18.893-4.49 4.49-.97.97a1.171 1.171 0 0 1-1.66 0l-2.087-2.086a1.173 1.173 0 1 1 1.66-1.66l1.257 1.257 4.63-4.63a1.173 1.173 0 1 1 1.66 1.66Z"/><path fill="#6FA5AA" d="m24.603 18.893-4.49 4.49v-3.32l2.83-2.83a1.173 1.173 0 1 1 1.66 1.66Z"/></g><defs><clipPath id="a"><path fill="#fff" d="M0 .329h40v40H0z"/></clipPath></defs></svg>