<svg xmlns="http://www.w3.org/2000/svg" width="40" height="41" fill="none" viewBox="0 0 40 41"><g clip-path="url(#a)"><path fill="#1555F9" d="M20 .33C8.955.33 0 9.283 0 20.329c0 11.045 8.955 19.999 20 19.999 11.046 0 20-8.954 20-20C40 9.284 31.046.33 20 .33Zm0 5.98a6.616 6.616 0 1 1 .001 13.23A6.616 6.616 0 0 1 20 6.31Zm-.004 28.789a14.678 14.678 0 0 1-9.558-3.525 2.819 2.819 0 0 1-.99-2.142c0-3.705 2.999-6.67 6.704-6.67h7.698a6.662 6.662 0 0 1 6.693 6.67c0 .824-.36 1.607-.988 2.142a14.673 14.673 0 0 1-9.56 3.525Z"/></g><defs><clipPath id="a"><path fill="#fff" d="M0 .329h40v40H0z"/></clipPath></defs></svg>