<svg xmlns="http://www.w3.org/2000/svg" width="40" height="41" fill="none" viewBox="0 0 40 41"><path fill="#A40DBC" d="M10.015 11.162a6.666 6.666 0 1 1 13.333 0 6.666 6.666 0 0 1-13.333 0Zm11.819 20.533a3.166 3.166 0 0 1-.85-3.3 3.203 3.203 0 0 1 2.633-2.216l2.083-.3s.334-.032.434-.234l.666-1.333a.552.552 0 0 0 .067-.317.528.528 0 0 0-.133-.25A8.808 8.808 0 0 0 20 21.162h-6.666c-6.767 0-9.167 4.95-9.167 9.2 0 3.8 2.017 5.8 5.833 5.8h12.65c.267 0 .437-.2.517-.633l.333-1.917a.463.463 0 0 0-.15-.45l-1.516-1.467Zm14.611-1.802a.726.726 0 0 0-.411-1.241l-3.32-.472a.74.74 0 0 1-.559-.398l-1.44-2.854a.8.8 0 0 0-1.425 0l-1.438 2.854a.742.742 0 0 1-.558.398l-3.32.472a.722.722 0 0 0-.412 1.241l2.4 2.29a.72.72 0 0 1 .215.647l-.548 3.132a.79.79 0 0 0 1.151.821l2.879-1.48a.751.751 0 0 1 .69 0l2.88 1.482a.79.79 0 0 0 1.15-.821l-.545-3.136a.723.723 0 0 1 .213-.646l2.398-2.289Z"/></svg>