<svg width="22" height="23" viewBox="0 0 22 23" fill="none" xmlns="http://www.w3.org/2000/svg">
<path fill-rule="evenodd" clip-rule="evenodd" d="M14.663 3.27525C12.8902 2.48535 10.9096 2.28967 9.01657 2.71738C7.12351 3.14509 5.41942 4.17328 4.15845 5.64861C2.89749 7.12394 2.14721 8.96735 2.01951 10.9039C1.89181 12.8405 2.39354 14.7665 3.44987 16.3946C4.50619 18.0227 6.06051 19.2658 7.88102 19.9384C9.70153 20.611 11.6907 20.677 13.5518 20.1268C15.413 19.5765 17.0464 18.4393 18.2084 16.8849C19.3705 15.3305 19.9989 13.442 20 11.5012V10.5818C20 10.0295 20.4477 9.58182 21 9.58182C21.5523 9.58182 22 10.0295 22 10.5818V11.5018C21.9986 13.8739 21.2306 16.1825 19.8103 18.0824C18.39 19.9823 16.3936 21.3721 14.1189 22.0447C11.8442 22.7172 9.41299 22.6365 7.18792 21.8144C4.96285 20.9924 3.06312 19.4731 1.77206 17.4832C0.480993 15.4932 -0.13223 13.1393 0.0238445 10.7723C0.179919 8.40541 1.09693 6.15235 2.63811 4.34917C4.17929 2.54599 6.26206 1.28931 8.57581 0.766551C10.8896 0.243791 13.3103 0.482961 15.477 1.44839C15.9815 1.67317 16.2082 2.26435 15.9834 2.76882C15.7587 3.27329 15.1675 3.50003 14.663 3.27525Z" fill="#3CACFE"/>
<path fill-rule="evenodd" clip-rule="evenodd" d="M21.7068 2.79436C22.0975 3.18469 22.0978 3.81785 21.7075 4.20857L11.7075 14.2186C11.52 14.4063 11.2656 14.5118 11.0003 14.5118C10.735 14.5119 10.4805 14.4065 10.2929 14.2189L7.2929 11.2189C6.90238 10.8284 6.90238 10.1952 7.2929 9.80471C7.68342 9.41419 8.31659 9.41419 8.70711 9.80471L10.9997 12.0973L20.2925 2.79507C20.6829 2.40435 21.316 2.40403 21.7068 2.79436Z" fill="#3CACFE"/>
</svg>
